<?xml version="1.0" encoding="UTF-8"?>
<svg width="190px" height="75px" viewBox="0 0 190 75" version="1.1" xmlns="http://www.w3.org/2000/svg" xmlns:xlink="http://www.w3.org/1999/xlink">
    <!-- Generator: sketchtool 56.3 (101010) - https://sketch.com -->
    <title>DF9BE88F-77C6-4714-9230-F0DD8E166853</title>
    <desc>Created with sketchtool.</desc>
    <defs>
        <linearGradient x1="50%" y1="42.2091413%" x2="84.7344026%" y2="60.7752392%" id="linearGradient-1">
            <stop stop-color="#F1B77D" offset="0%"></stop>
            <stop stop-color="#CF394E" offset="100%"></stop>
        </linearGradient>
        <rect id="path-2" x="0" y="0" width="190" height="75" rx="11"></rect>
    </defs>
    <g id="05-Settings" stroke="none" stroke-width="1" fill="none" fill-rule="evenodd">
        <g id="5.0-Whot---Settings---Profile" transform="translate(-23.000000, -108.000000)">
            <g id="Group-4" transform="translate(23.000000, 108.000000)">
                <g id="Group-3">
                    <g id="Group-2">
                        <rect id="Rectangle" fill="url(#linearGradient-1)" x="0" y="0" width="190" height="75" rx="11"></rect>
                        <g id="icon/user">
                            <g>
                                <mask id="mask-3" fill="white">
                                    <use xlink:href="#path-2"></use>
                                </mask>
                                <use id="Mask" fill="url(#linearGradient-1)" xlink:href="#path-2"></use>
                                <g opacity="0.14" mask="url(#mask-3)" fill="#FFFFFF" fill-rule="nonzero">
                                    <g transform="translate(124.000000, 10.000000)">
                                        <path d="M28,38 C17.4274194,38 9,29.5390625 9,19 C9,8.4609375 17.5806452,0 28,0 C38.4193548,0 47,8.4609375 47,19 C47,29.5390625 38.4193548,38 28,38 Z M28,26.8671875 C32.4435484,26.8671875 36.1209677,23.3046875 36.1209677,18.8515625 C36.1209677,14.3984375 32.5967742,10.8359375 28,10.8359375 C23.5564516,10.8359375 19.8790323,14.3984375 19.8790323,18.8515625 C19.8790323,23.3046875 23.4032258,26.8671875 28,26.8671875 Z" id="Oval-2_15_"></path>
                                        <path d="M4,72 L57,72 L57,69.5 C57,54.8644541 45.1355459,43 30.5,43 C15.8644541,43 4,54.8644541 4,69.5 L4,72 Z" id="Line_15_"></path>
                                        <path d="M62,72 C62,56 48.1522843,43 31,43 C13.8477157,43 0,56 0,72 L11.3299492,72 C11.3299492,61.8571429 20.142132,53.5714286 31,53.5714286 C41.857868,53.5714286 50.6700508,61.8571429 50.6700508,72 L62,72 Z" id="Oval-3_15_"></path>
                                    </g>
                                </g>
                            </g>
                        </g>
                    </g>
                </g>
            </g>
        </g>
    </g>
</svg>