<?xml version="1.0" encoding="UTF-8"?>
<svg width="360px" height="313px" viewBox="0 0 360 313" version="1.1" xmlns="http://www.w3.org/2000/svg" xmlns:xlink="http://www.w3.org/1999/xlink">
    <!-- Generator: Sketch 53.2 (72643) - https://sketchapp.com -->
    <title>Group</title>
    <desc>Created with Sketch.</desc>
    <defs>
        <rect id="path-1" x="0" y="0" width="377" height="322"></rect>
    </defs>
    <g id="03-Play-Overlay" stroke="none" stroke-width="1" fill="none" fill-rule="evenodd">
        <g id="3.0-Overlay---Congratulations" transform="translate(-182.000000, -62.000000)">
            <g id="Group-10" transform="translate(172.000000, 38.000000)">
                <g id="Group" transform="translate(0.000000, 16.000000)">
                    <mask id="mask-2" fill="white">
                        <use xlink:href="#path-1"></use>
                    </mask>
                    <g id="Mask"></g>
                    <g style="mix-blend-mode: darken;" mask="url(#mask-2)">
                        <g transform="translate(-88.000000, 7.000000)">
                            <path d="M437.647541,85.9790555 L437.46482,86.0397125 C436.940662,86.2137149 436.374691,85.9298576 436.200689,85.4056995 C436.132785,85.2011483 436.132785,84.9801326 436.200689,84.7755814 L436.261346,84.5928605 C436.708527,83.2457885 436.70858,81.7902974 436.261497,80.4431929 L436.200814,80.2603488 C436.02685,79.736178 436.310749,79.170228 436.83492,78.996264 C437.039428,78.9283907 437.26039,78.9283907 437.464899,78.996264 L437.647743,79.056947 C438.994848,79.5040299 440.450339,79.5039767 441.797411,79.0567955 L441.980132,78.9961385 C442.50429,78.8221362 443.070261,79.1059935 443.244263,79.6301515 C443.312167,79.8347027 443.312167,80.0557184 443.244263,80.2602696 L443.183606,80.4429906 C442.736425,81.7900625 442.736372,83.2455536 443.183454,84.5926581 L443.244137,84.7755023 C443.418101,85.299673 443.134203,85.865623 442.610032,86.0395871 C442.405523,86.1074603 442.184561,86.1074603 441.980053,86.0395871 L441.797209,85.978904 C440.450104,85.5318211 438.994613,85.5318743 437.647541,85.9790555 Z" id="Star" stroke="none" fill="#7DA7DE" fill-rule="evenodd" transform="translate(439.722476, 82.517926) rotate(-45.000000) translate(-439.722476, -82.517926) "></path>
                            <path d="M159.876198,9.68279176 L159.693477,9.7434488 C159.169319,9.91745111 158.603348,9.63359381 158.429346,9.10943578 C158.361442,8.9048846 158.361442,8.68386886 158.429346,8.47931767 L158.490003,8.2965967 C158.937184,6.9495248 158.937237,5.4940337 158.490155,4.14692914 L158.429471,3.96408503 C158.255507,3.4399143 158.539406,2.87396425 159.063577,2.70000021 C159.268086,2.63212698 159.489048,2.63212698 159.693556,2.70000021 L159.8764,2.7606833 C161.223505,3.20776614 162.678996,3.207713 164.026068,2.76053178 L164.208789,2.69987475 C164.732947,2.52587243 165.298918,2.80972973 165.47292,3.33388776 C165.540824,3.53843894 165.540824,3.75945469 165.47292,3.96400587 L165.412263,4.14672684 C164.965082,5.49379874 164.965029,6.94928984 165.412111,8.2963944 L165.472795,8.47923851 C165.646759,9.00340924 165.36286,9.56935929 164.838689,9.74332333 C164.634181,9.81119656 164.413218,9.81119656 164.20871,9.74332333 L164.025866,9.68264024 C162.678761,9.2355574 161.22327,9.23561055 159.876198,9.68279176 Z" id="Star-Copy-6" stroke="none" fill="#7DA7DE" fill-rule="evenodd" transform="translate(161.951133, 6.221662) rotate(-45.000000) translate(-161.951133, -6.221662) "></path>
                            <path d="M101.192112,192.598193 L101.009391,192.65885 C100.485233,192.832853 99.9192618,192.548995 99.7452595,192.024837 C99.6773555,191.820286 99.6773555,191.59927 99.7452595,191.394719 L99.8059165,191.211998 C100.253098,189.864926 100.253151,188.409435 99.806068,187.062331 L99.7453849,186.879487 C99.5714209,186.355316 99.8553195,185.789366 100.37949,185.615402 C100.583999,185.547529 100.804961,185.547529 101.00947,185.615402 L101.192314,185.676085 C102.539418,186.123168 103.99491,186.123115 105.341981,185.675933 L105.524702,185.615276 C106.04886,185.441274 106.614831,185.725131 106.788834,186.249289 C106.856737,186.45384 106.856737,186.674856 106.788834,186.879407 L106.728176,187.062128 C106.280995,188.4092 106.280942,189.864691 106.728025,191.211796 L106.788708,191.39464 C106.962672,191.918811 106.678773,192.484761 106.154603,192.658725 C105.950094,192.726598 105.729132,192.726598 105.524623,192.658725 L105.341779,192.598042 C103.994675,192.150959 102.539183,192.151012 101.192112,192.598193 Z" id="Star-Copy-2" stroke="none" fill="#7DA7DE" fill-rule="evenodd" transform="translate(103.267046, 189.137063) rotate(-45.000000) translate(-103.267046, -189.137063) "></path>
                            <path d="M421.020383,274.7634 L420.837662,274.824057 C420.313504,274.99806 419.747533,274.714202 419.573531,274.190044 C419.505627,273.985493 419.505627,273.764478 419.573531,273.559926 L419.634188,273.377205 C420.081369,272.030133 420.081422,270.574642 419.63434,269.227538 L419.573656,269.044694 C419.399692,268.520523 419.683591,267.954573 420.207762,267.780609 C420.412271,267.712736 420.633233,267.712736 420.837741,267.780609 L421.020585,267.841292 C422.36769,268.288375 423.823181,268.288322 425.170253,267.84114 L425.352974,267.780483 C425.877132,267.606481 426.443103,267.890338 426.617105,268.414496 C426.685009,268.619048 426.685009,268.840063 426.617105,269.044615 L426.556448,269.227336 C426.109267,270.574407 426.109214,272.029899 426.556297,273.377003 L426.61698,273.559847 C426.790944,274.084018 426.507045,274.649968 425.982874,274.823932 C425.778366,274.891805 425.557404,274.891805 425.352895,274.823932 L425.170051,274.763249 C423.822946,274.316166 422.367455,274.316219 421.020383,274.7634 Z" id="Star-Copy-4" stroke="none" fill="#7DA7DE" fill-rule="evenodd" transform="translate(423.095318, 271.302270) rotate(-45.000000) translate(-423.095318, -271.302270) "></path>
                            <path d="M389.550368,239.401304 L389.458214,239.438472 C388.646129,239.766 387.722289,239.37319 387.39476,238.561105 C387.241309,238.180632 387.241309,237.755491 387.39476,237.375018 L387.431928,237.282864 C388.30291,235.123322 388.30299,232.710254 387.432149,230.550655 L387.395076,230.458717 C387.067561,229.646514 387.460479,228.72259 388.272683,228.395076 C388.653144,228.241658 389.078256,228.241658 389.458717,228.395076 L389.550655,228.432149 C391.710254,229.30299 394.123322,229.30291 396.282864,228.431928 L396.375018,228.39476 C397.187103,228.067232 398.110943,228.460042 398.438472,229.272128 C398.591923,229.6526 398.591923,230.077742 398.438472,230.458214 L398.401304,230.550368 C397.530322,232.70991 397.530243,235.122978 398.401083,237.282577 L398.438157,237.374515 C398.765671,238.186718 398.372753,239.110642 397.56055,239.438157 C397.180089,239.591574 396.754976,239.591574 396.374515,239.438157 L396.282577,239.401083 C394.122978,238.530243 391.70991,238.530322 389.550368,239.401304 Z" id="Star-Copy" stroke="none" fill="#7DA7DE" fill-rule="evenodd" transform="translate(392.916616, 233.916616) rotate(-45.000000) translate(-392.916616, -233.916616) "></path>
                            <path d="M116.527957,70.3957835 L116.435802,70.432951 C115.623717,70.7604797 114.699877,70.3676691 114.372349,69.5555838 C114.218897,69.1751115 114.218897,68.7499699 114.372349,68.3694975 L114.409516,68.277343 C115.280499,66.1178012 115.280578,63.7047337 114.409737,61.5451348 L114.372664,61.4531965 C114.045149,60.6409931 114.438067,59.7170693 115.250271,59.3895549 C115.630732,59.2361371 116.055844,59.2361371 116.436305,59.3895549 L116.528244,59.4266283 C118.687843,60.297469 121.10091,60.2973898 123.260452,59.4264074 L123.352606,59.3892398 C124.164692,59.0617111 125.088531,59.4545218 125.41606,60.266607 C125.569511,60.6470794 125.569511,61.072221 125.41606,61.4526934 L125.378892,61.5448478 C124.50791,63.7043896 124.507831,66.1174571 125.378671,68.2770561 L125.415745,68.3689944 C125.743259,69.1811977 125.350341,70.1051215 124.538138,70.4326359 C124.157677,70.5860537 123.732564,70.5860537 123.352103,70.4326359 L123.260165,70.3955626 C121.100566,69.5247219 118.687499,69.524801 116.527957,70.3957835 Z" id="Star-Copy-3" stroke="none" fill="#7DA7DE" fill-rule="evenodd" transform="translate(119.894204, 64.911095) rotate(-45.000000) translate(-119.894204, -64.911095) "></path>
                            <path d="M447,57.4465253 C450.892342,58.8683687 452.538519,57.5507391 451.938532,53.4936367 C451.338545,49.4365343 453.025701,48.1266633 457,49.5640238" id="Path-2" stroke="#957DF1" stroke-width="2" fill="none" stroke-linecap="round"></path>
                            <path d="M377,312.446525 C380.892342,313.868369 382.538519,312.550739 381.938532,308.493637 C381.338545,304.436534 383.025701,303.126663 387,304.564024" id="Path-2-Copy-2" stroke="#957DF1" stroke-width="2" fill="none" stroke-linecap="round"></path>
                            <path d="M105.647855,262.132159 C109.616378,263.627823 111.294752,262.241842 110.682978,257.974217 C110.071204,253.706591 111.791358,252.328772 115.843441,253.84076" id="Path-2-Copy-5" stroke="#957DF1" stroke-width="2" fill="none" stroke-linecap="round" transform="translate(110.745648, 257.980911) rotate(-97.000000) translate(-110.745648, -257.980911) "></path>
                            <path d="M440.700026,238.127006 C444.668402,239.622504 446.346812,238.236416 445.735257,233.96874 C445.123703,229.701065 446.843892,228.323136 450.895826,229.834954" id="Path-2-Copy" stroke="#957DF1" stroke-width="2" fill="none" stroke-linecap="round" transform="translate(445.797926, 233.975433) rotate(-62.000000) translate(-445.797926, -233.975433) "></path>
                            <path d="M374.191395,31.7358307 C378.15977,33.2313292 379.838181,31.8452408 379.226626,27.5775652 C378.615071,23.3098897 380.335261,21.9319609 384.387195,23.4437789" id="Path-2-Copy-6" stroke="#957DF1" stroke-width="2" fill="none" stroke-linecap="round" transform="translate(379.289295, 27.584258) rotate(-62.000000) translate(-379.289295, -27.584258) "></path>
                            <path d="M104.244597,22.9324156 C108.212972,24.4279142 109.891383,23.0418257 109.279828,18.7741502 C108.668273,14.5064746 110.388463,13.1285459 114.440397,14.6403639" id="Path-2-Copy-7" stroke="#957DF1" stroke-width="2" fill="none" stroke-linecap="round" transform="translate(109.342497, 18.780843) rotate(-62.000000) translate(-109.342497, -18.780843) "></path>
                            <circle id="Oval" stroke="none" fill="#F1B77D" fill-rule="evenodd" cx="401" cy="51" r="2"></circle>
                            <circle id="Oval-Copy-10" stroke="none" fill="#F1B77D" fill-rule="evenodd" cx="421" cy="295" r="2"></circle>
                            <circle id="Oval-Copy-6" stroke="none" fill="#F1B77D" fill-rule="evenodd" cx="443" cy="151" r="2"></circle>
                            <circle id="Oval-Copy-9" stroke="none" fill="#F1B77D" fill-rule="evenodd" cx="120" cy="212" r="2"></circle>
                            <circle id="Oval-Copy-5" stroke="none" fill="#F1B77D" fill-rule="evenodd" cx="117" cy="110" r="2"></circle>
                            <circle id="Oval-Copy-7" stroke="none" fill="#F1B77D" fill-rule="evenodd" cx="439.5" cy="12.5" r="3.5"></circle>
                        </g>
                    </g>
                </g>
            </g>
        </g>
    </g>
</svg>