<?xml version="1.0" encoding="UTF-8"?>
<svg width="231px" height="116px" viewBox="0 0 231 116" version="1.1" xmlns="http://www.w3.org/2000/svg" xmlns:xlink="http://www.w3.org/1999/xlink">
    <!-- Generator: sketchtool 56.3 (101010) - https://sketch.com -->
    <title>9CCAF080-735F-4F4B-BDAF-110D06A6BB9F</title>
    <desc>Created with sketchtool.</desc>
    <defs>
        <linearGradient x1="50%" y1="37.3915406%" x2="84.7344026%" y2="67.4382787%" id="linearGradient-1">
            <stop stop-color="#F1B77D" offset="0%"></stop>
            <stop stop-color="#CF394E" offset="100%"></stop>
        </linearGradient>
        <rect id="path-2" x="0" y="0.316987298" width="231" height="116" rx="11"></rect>
    </defs>
    <g id="04-Deposit-and-Withdrawals" stroke="none" stroke-width="1" fill="none" fill-rule="evenodd">
        <g id="4.0-Whot---Deposit-Bag" transform="translate(-30.000000, -96.000000)">
            <g id="Group-13" transform="translate(30.000000, 95.683013)">
                <mask id="mask-3" fill="white">
                    <use xlink:href="#path-2"></use>
                </mask>
                <use id="Mask" fill="url(#linearGradient-1)" xlink:href="#path-2"></use>
                <g opacity="0.138578869" mask="url(#mask-3)" fill="#FFFFFF" fill-rule="nonzero">
                    <g transform="translate(180.500000, 63.000000) rotate(-360.000000) translate(-180.500000, -63.000000) translate(122.500000, -5.000000)">
                        <path d="M108.063624,100.306659 C113.281557,104.238897 115.73029,110.000944 115.73029,115.832907 C115.73029,126.658626 107.146946,135.398875 96.5636238,135.398875 L19.8969571,135.398875 C9.2921682,135.398875 0.730290419,126.636712 0.730290419,115.832907 C0.730290419,109.956855 3.2247682,104.204721 8.39695709,100.306137 L8.39695709,92.3537451 C8.39695709,69.6240905 23.0799015,50.074297 43.269046,43.5721345 C43.1346238,42.9877643 42.8969571,42.4333952 42.8969571,41.8213717 C42.8969571,37.9233091 45.7681238,34.568137 49.5789682,34.0179419 C52.3941682,33.6052304 55.3029015,33.3988747 58.2302904,33.3988747 C61.1576793,33.3988747 64.0699904,33.6052304 66.8851904,34.0179419 C70.6960349,34.568137 73.5636238,37.92357 73.5636238,41.8213717 C73.5636238,42.4333952 73.3259571,42.9880252 73.1915349,43.5721345 C93.3801682,50.0748188 108.063624,69.6246123 108.063624,92.3537451 L108.063624,100.306659 Z M43.8552904,99.609401 L36.6677904,99.609401 L36.6677904,106.767296 L43.8552904,106.767296 L43.8552904,113.92519 L50.5855106,113.92519 L50.5855106,106.767296 L61.9120761,106.767296 L65.6874682,113.92519 L72.6052904,113.92519 L72.6052904,106.767296 L79.7927904,106.767296 L79.7927904,99.609401 L72.6052904,99.609401 L72.6052904,85.2936115 L79.7927904,85.2936115 L79.7927904,78.1357168 L72.6052904,78.1357168 L72.6052904,70.9778221 L65.8516199,70.9778221 L65.8516199,78.1357168 L54.328425,78.1357168 L50.5855106,70.9778221 L43.8552904,70.9778221 L43.8552904,78.1357168 L36.6677904,78.1357168 L36.6677904,85.2936115 L43.8552904,85.2936115 L43.8552904,99.609401 Z M50.5855106,99.609401 L50.5855106,85.4707141 L50.6793116,85.4707141 L58.136684,99.609401 L50.5855106,99.609401 Z M65.5571679,99.609401 L58.0713393,85.2936115 L65.8516199,85.2936115 L65.8516199,99.609401 L65.5571679,99.609401 Z" id="Shape"></path>
                        <path d="M37.2241923,0.888312373 L37.2241923,4.84709877 C37.2241923,12.8232616 40.6007123,20.4507873 46.3337123,25.8883124 C49.8852323,25.1509224 54.7362323,24.9089086 58.2241923,24.9089086 C61.7258723,24.9089086 66.5315123,25.1480193 70.1152323,25.8875206 C75.8476723,20.4502595 79.2241923,12.8227338 79.2241923,4.84709877 L79.2241923,0.888312373 L37.2241923,0.888312373 Z" id="Path"></path>
                    </g>
                </g>
            </g>
        </g>
    </g>
</svg>