<?xml version="1.0" encoding="UTF-8"?>
<svg width="896px" height="414px" viewBox="0 0 896 414" version="1.1" xmlns="http://www.w3.org/2000/svg" xmlns:xlink="http://www.w3.org/1999/xlink">
    <!-- Generator: Sketch 53.2 (72643) - https://sketchapp.com -->
    <title>03 copy</title>
    <desc>Created with Sketch.</desc>
    <g id="03-copy" stroke="none" stroke-width="1" fill="none" fill-rule="evenodd">
        <g id="landing-new" transform="translate(0.000000, -26.000000)">
            <g id="Layer_1">
                <polyline id="Path" fill="#415B59" points="898.5 449.5 898.5 0.5 0.5 0.5 0.5 449.5 898.5 449.5"></polyline>
                <path d="M894,440.1 L894,401.5 C751.3,176.4 500,27 213.8,27 C139.8,27 68.1,37 0,55.8 L0,440.1 L894,440.1 Z" id="Path" fill="#598F81" opacity="0.811331845"></path>
            </g>
            <g id="Layer_5" transform="translate(388.000000, 8.000000)" fill="#87C1B1" opacity="0.162527902">
                <path d="M0,340.3 L19.1,417.4 L65.7,405.9 C68.2,405.3 70.8,406.8 71.4,409.4 L83,456 L129.6,444.5 C132.1,443.9 134.7,445.4 135.3,448 L146.8,494.6 L193.4,483.1 C195.9,482.5 198.5,484 199.1,486.6 L200.6,492.5 L203.7,490.8 L202.5,485.8 C201.9,483.3 203.4,480.7 206,480.1 L224,475.6 L219.5,457.6 C218.9,455.1 220.4,452.5 223,451.9 L239.3,447.9 C241.8,447.3 244.4,448.8 245,451.4 L248.6,466.1 L253.1,463.6 C251.9,463 251.1,461.9 250.7,460.5 L248.2,450.5 C247.6,448 249.1,445.4 251.7,444.8 L261.7,442.3 C264.2,441.7 266.8,443.2 267.4,445.8 L269.6,454.5 L272.7,452.8 L268.8,437.1 L250.9,441.5 C248.4,442.1 245.8,440.6 245.2,438 L241.2,421.8 C240.6,419.3 242.1,416.7 244.7,416.1 L262.7,411.6 L258.2,393.6 C257.6,391.1 259.1,388.5 261.7,387.9 L278,383.9 C280.5,383.3 283.1,384.8 283.7,387.4 L288.1,405.3 L306,400.9 C308.5,400.3 311.1,401.8 311.7,404.4 L315.7,420.6 C316.3,423.1 314.8,425.7 312.2,426.3 L294.2,430.8 L296.4,439.8 L299.5,438.1 L299.4,437.8 C298.8,435.3 300.3,432.7 302.9,432.1 L313,429.6 C313.7,429.4 314.3,429.4 315,429.5 L327.8,422.4 L324.7,423.2 C322.2,423.8 319.6,422.3 319,419.7 L315,403.4 C314.4,400.9 315.9,398.3 318.5,397.7 L326.7,395.7 L334.8,393.7 C337.3,393.1 339.9,394.6 340.5,397.2 L344.5,413.3 L347.6,411.6 L343.8,396.4 C343.2,393.9 344.7,391.3 347.3,390.7 L365.3,386.2 L360.8,368.2 C360.2,365.7 361.7,363.1 364.3,362.5 L380.6,358.5 C383.1,357.9 385.7,359.4 386.3,362 L390.7,379.9 L408.6,375.5 C409.9,375.2 411.2,375.4 412.2,376.1 L428.5,367.1 L420.2,369.1 C417.7,369.7 415.1,368.2 414.5,365.6 L410.1,347.7 L392.2,352.1 C389.7,352.7 387.1,351.2 386.5,348.6 L382.5,332.3 C381.9,329.8 383.4,327.2 386,326.6 L404,322.1 L399.5,304.1 C398.9,301.6 400.4,299 403,298.4 L419.2,294.4 C421.7,293.8 424.3,295.3 424.9,297.9 L429.3,315.8 L447.2,311.4 C449.7,310.8 452.3,312.3 452.9,314.9 L461.3,348.9 L464.4,347.2 L456.2,314 C455.6,311.5 457.1,308.9 459.7,308.3 L506.5,296.7 L494.9,249.9 C494.3,247.4 495.8,244.8 498.4,244.2 L545.2,232.6 L526,155.1 L479.4,166.6 C476.9,167.2 474.3,165.7 473.7,163.1 L462.2,116.5 L415.6,128 C413.1,128.6 410.5,127.1 409.9,124.5 L398.2,78 L351.6,89.5 C349.1,90.1 346.5,88.6 345.9,86 L334.4,39.4 L287.7,51 C285.2,51.6 282.6,50.1 282,47.5 L270.4,0.9 L193.3,20 L204.9,66.8 C205.5,69.3 204,71.9 201.4,72.5 L154.6,84 L164.1,122.6 L166.1,130.8 C166.7,133.3 165.2,135.9 162.6,136.5 L116,148.1 L127.6,194.9 C128.2,197.4 126.7,200 124.1,200.6 L77.3,212.2 L88.9,259 C89.5,261.5 88,264.1 85.4,264.7 L38.6,276.3 L50.2,323.1 C50.8,325.6 49.3,328.2 46.7,328.8 L0,340.3 L0,340.3 Z M487.4,219.2 L469.5,223.6 C467,224.2 464.4,222.7 463.8,220.1 L459.8,203.8 C459.2,201.3 460.7,198.7 463.3,198.1 L481.3,193.6 L476.8,175.6 C476.2,173.1 477.7,170.5 480.3,169.9 L519,160.3 C521.5,159.7 524.1,161.2 524.7,163.8 L539.9,225.2 C540.5,227.7 539,230.3 536.4,230.9 L497.5,240.5 C495,241.1 492.4,239.6 491.8,237 L487.4,219.2 L487.4,219.2 Z M456.5,204.7 L460.5,221 C461.1,223.5 459.6,226.1 457,226.7 L440.7,230.7 C438.2,231.3 435.6,229.8 435,227.2 L431,210.9 C430.4,208.4 431.9,205.8 434.5,205.2 L450.8,201.2 C453.3,200.6 455.8,202.2 456.5,204.7 L456.5,204.7 Z M448.9,174.2 L453.4,192.2 C454,194.7 452.5,197.3 449.9,197.9 L433.6,201.9 C431.1,202.5 428.5,201 427.9,198.4 L423.5,180.5 L405.6,184.9 C403.1,185.5 400.5,184 399.9,181.4 L395.9,165.1 C395.3,162.6 396.8,160 399.4,159.4 L417.4,154.9 L412.9,136.9 C412.3,134.4 413.8,131.8 416.4,131.2 L455.2,121.6 C457.7,121 460.3,122.5 460.9,125.1 L470.5,163.9 C471.1,166.4 469.6,169 467,169.6 L448.9,174.2 L448.9,174.2 Z M448.7,283.2 L430.8,287.6 C428.3,288.2 425.7,286.7 425.1,284.1 L421.1,267.8 C420.5,265.3 422,262.7 424.6,262.1 L442.6,257.6 L438.1,239.6 C437.5,237.1 439,234.5 441.6,233.9 L457.9,229.9 C460.4,229.3 463,230.8 463.6,233.4 L468,251.3 L485.9,246.9 C488.4,246.3 491,247.8 491.6,250.4 L501.2,289.3 C501.8,291.8 500.3,294.4 497.7,295 L458.8,304.6 C456.3,305.2 453.7,303.7 453.1,301.1 L448.7,283.2 L448.7,283.2 Z M457.6,175.5 L467.7,173 C470.2,172.4 472.8,173.9 473.4,176.5 L475.9,186.6 C476.5,189.1 475,191.7 472.4,192.3 L462.3,194.8 C459.8,195.4 457.2,193.9 456.6,191.3 L454.1,181.2 C453.5,178.7 455.1,176.1 457.6,175.5 L457.6,175.5 Z M485.1,243.6 L475.1,246.1 C472.6,246.7 470,245.2 469.4,242.6 L466.9,232.6 C466.3,230.1 467.8,227.5 470.4,226.9 L480.4,224.4 C482.9,223.8 485.5,225.3 486.1,227.9 L488.6,237.9 C489.2,240.4 487.6,243 485.1,243.6 L485.1,243.6 Z M417.8,268.8 L421.8,285.1 C422.4,287.6 420.9,290.2 418.3,290.8 L402,294.8 C399.5,295.4 396.9,293.9 396.3,291.3 L392.3,275 C391.7,272.5 393.2,269.9 395.8,269.3 L412.1,265.3 C414.6,264.7 417.2,266.2 417.8,268.8 L417.8,268.8 Z M410.3,238.3 L414.8,256.3 C415.4,258.8 413.9,261.4 411.3,262 L395,266 C392.5,266.6 389.9,265.1 389.3,262.5 L384.9,244.6 L367,249 C364.5,249.6 361.9,248.1 361.3,245.5 L357.3,229.2 C356.7,226.7 358.2,224.1 360.8,223.5 L378.8,219 L374.3,201 C373.7,198.5 375.2,195.9 377.8,195.3 L394,191.3 C396.5,190.7 399.1,192.2 399.7,194.8 L404.1,212.7 L422,208.3 C424.5,207.7 427.1,209.2 427.7,211.8 L431.7,228.1 C432.3,230.6 430.8,233.2 428.2,233.8 L410.3,238.3 L410.3,238.3 Z M418.9,239.6 L429,237.1 C431.5,236.5 434.1,238 434.7,240.6 L437.2,250.7 C437.8,253.2 436.3,255.8 433.7,256.4 L423.6,258.9 C421.1,259.5 418.5,258 417.9,255.4 L415.4,245.3 C414.9,242.8 416.4,240.2 418.9,239.6 L418.9,239.6 Z M446.4,307.7 L436.4,310.2 C433.9,310.8 431.3,309.3 430.7,306.7 L428.2,296.7 C427.6,294.2 429.1,291.6 431.7,291 L441.7,288.5 C444.2,287.9 446.8,289.4 447.4,292 L449.9,302 C450.5,304.5 449,307.1 446.4,307.7 L446.4,307.7 Z M379.2,332.8 L383.2,349.1 C383.8,351.6 382.3,354.2 379.7,354.8 L363.4,358.8 C360.9,359.4 358.3,357.9 357.7,355.3 L353.7,339 C353.1,336.5 354.6,333.9 357.2,333.3 L373.5,329.3 C375.9,328.7 378.5,330.3 379.2,332.8 L379.2,332.8 Z M371.6,302.3 L376.1,320.3 C376.7,322.8 375.2,325.4 372.6,326 L356.3,330 C353.8,330.6 351.2,329.1 350.6,326.5 L346.2,308.6 L328.3,313 C325.8,313.6 323.2,312.1 322.6,309.5 L318.6,293.2 C318,290.7 319.5,288.1 322.1,287.5 L340.1,283 L335.6,265 C335,262.5 336.5,259.9 339.1,259.3 L355.4,255.3 C357.9,254.7 360.5,256.2 361.1,258.8 L365.5,276.7 L383.4,272.3 C385.9,271.7 388.5,273.2 389.1,275.8 L393.1,292.1 C393.7,294.6 392.2,297.2 389.6,297.8 L371.6,302.3 L371.6,302.3 Z M380.3,303.7 L390.4,301.2 C392.9,300.6 395.5,302.1 396.1,304.7 L398.6,314.8 C399.2,317.3 397.7,319.9 395.1,320.5 L385,323 C382.5,323.6 379.9,322.1 379.3,319.5 L376.8,309.4 C376.2,306.9 377.8,304.3 380.3,303.7 L380.3,303.7 Z M407.8,371.8 L397.8,374.3 C395.3,374.9 392.7,373.4 392.1,370.8 L389.6,360.8 C389,358.3 390.5,355.7 393.1,355.1 L403.1,352.6 C405.6,352 408.2,353.5 408.8,356.1 L411.3,366.1 C411.9,368.5 410.3,371.1 407.8,371.8 L407.8,371.8 Z M333,366.4 L337.5,384.4 C338.1,386.9 336.6,389.5 334,390.1 L317.7,394.1 C315.2,394.7 312.6,393.2 312,390.6 L307.6,372.7 L289.7,377.1 C287.2,377.7 284.6,376.2 284,373.6 L280,357.3 C279.4,354.8 280.9,352.2 283.5,351.6 L301.5,347.1 L297,329.1 C296.4,326.6 297.9,324 300.5,323.4 L316.7,319.4 C319.2,318.8 321.8,320.3 322.4,322.9 L326.8,340.8 L344.7,336.4 C347.2,335.8 349.8,337.3 350.4,339.9 L354.4,356.2 C355,358.7 353.5,361.3 350.9,361.9 L333,366.4 L333,366.4 Z M341.6,367.7 L351.7,365.2 C354.2,364.6 356.8,366.1 357.4,368.7 L359.9,378.8 C360.5,381.3 359,383.9 356.4,384.5 L346.3,387 C343.8,387.6 341.2,386.1 340.6,383.5 L338.1,373.4 C337.6,370.9 339.1,368.3 341.6,367.7 L341.6,367.7 Z M392.6,166.1 L396.6,182.4 C397.2,184.9 395.7,187.5 393.1,188.1 L376.8,192.1 C374.3,192.7 371.7,191.2 371.1,188.6 L367.1,172.3 C366.5,169.8 368,167.2 370.6,166.6 L386.9,162.6 C389.3,162 391.9,163.6 392.6,166.1 L392.6,166.1 Z M385,135.6 L389.5,153.6 C390.1,156.1 388.6,158.7 386,159.3 L369.7,163.3 C367.2,163.9 364.6,162.4 364,159.8 L359.6,141.9 L341.7,146.3 C339.2,146.9 336.6,145.4 336,142.8 L332,126.5 C331.4,124 332.9,121.4 335.5,120.8 L353.5,116.3 L349,98.3 C348.4,95.8 349.9,93.2 352.5,92.6 L391.2,83 C393.7,82.4 396.3,83.9 396.9,86.5 L406.5,125.3 C407.1,127.8 405.6,130.4 403,131 L385,135.6 L385,135.6 Z M393.7,137 L403.8,134.5 C406.3,133.9 408.9,135.4 409.5,138 L412,148.1 C412.6,150.6 411.1,153.2 408.5,153.8 L398.4,156.3 C395.9,156.9 393.3,155.4 392.7,152.8 L390.2,142.7 C389.6,140.2 391.2,137.6 393.7,137 L393.7,137 Z M421.2,205.1 L411.2,207.6 C408.7,208.2 406.1,206.7 405.5,204.1 L403,194.1 C402.4,191.6 403.9,189 406.5,188.4 L416.5,185.9 C419,185.3 421.6,186.8 422.2,189.4 L424.7,199.4 C425.3,201.9 423.7,204.4 421.2,205.1 L421.2,205.1 Z M353.9,230.2 L357.9,246.5 C358.5,249 357,251.6 354.4,252.2 L338.1,256.2 C335.6,256.8 333,255.3 332.4,252.7 L328.4,236.4 C327.8,233.9 329.3,231.3 331.9,230.7 L348.2,226.7 C350.7,226.1 353.3,227.7 353.9,230.2 L353.9,230.2 Z M346.4,199.7 L350.9,217.7 C351.5,220.2 350,222.8 347.4,223.4 L331.1,227.4 C328.6,228 326,226.5 325.4,223.9 L321,206 L303.1,210.4 C300.6,211 298,209.5 297.4,206.9 L293.4,190.6 C292.8,188.1 294.3,185.5 296.9,184.9 L314.9,180.4 L310.4,162.4 C309.8,159.9 311.3,157.3 313.9,156.7 L330.2,152.7 C332.7,152.1 335.3,153.6 335.9,156.2 L340.3,174.1 L358.2,169.7 C360.7,169.1 363.3,170.6 363.9,173.2 L367.9,189.5 C368.5,192 367,194.6 364.4,195.2 L346.4,199.7 L346.4,199.7 Z M355,201 L365.1,198.5 C367.6,197.9 370.2,199.4 370.8,202 L373.3,212.1 C373.9,214.6 372.4,217.2 369.8,217.8 L359.7,220.3 C357.2,220.9 354.6,219.4 354,216.8 L351.5,206.7 C350.9,204.2 352.5,201.7 355,201 L355,201 Z M382.5,269.1 L372.5,271.6 C370,272.2 367.4,270.7 366.8,268.1 L364.3,258.1 C363.7,255.6 365.2,253 367.8,252.4 L377.8,249.9 C380.3,249.3 382.9,250.8 383.5,253.4 L386,263.4 C386.6,265.9 385.1,268.5 382.5,269.1 L382.5,269.1 Z M315.2,294.3 L319.2,310.6 C319.8,313.1 318.3,315.7 315.7,316.3 L299.4,320.3 C296.9,320.9 294.3,319.4 293.7,316.8 L289.7,300.5 C289.1,298 290.6,295.4 293.2,294.8 L309.5,290.8 C312,290.2 314.6,291.7 315.2,294.3 L315.2,294.3 Z M307.7,263.8 L312.2,281.8 C312.8,284.3 311.3,286.9 308.7,287.5 L292.4,291.5 C289.9,292.1 287.3,290.6 286.7,288 L282.3,270.1 L264.4,274.5 C261.9,275.1 259.3,273.6 258.7,271 L254.7,254.7 C254.1,252.2 255.6,249.6 258.2,249 L276.2,244.5 L271.7,226.5 C271.1,224 272.6,221.4 275.2,220.8 L291.5,216.8 C294,216.2 296.6,217.7 297.2,220.3 L301.6,238.2 L319.5,233.8 C322,233.2 324.6,234.7 325.2,237.3 L329.2,253.6 C329.8,256.1 328.3,258.7 325.7,259.3 L307.7,263.8 L307.7,263.8 Z M316.4,265.1 L326.5,262.6 C329,262 331.6,263.5 332.2,266.1 L334.7,276.2 C335.3,278.7 333.8,281.3 331.2,281.9 L321.1,284.4 C318.6,285 316,283.5 315.4,280.9 L312.9,270.8 C312.3,268.3 313.9,265.7 316.4,265.1 L316.4,265.1 Z M343.9,333.2 L333.9,335.7 C331.4,336.3 328.8,334.8 328.2,332.2 L325.7,322.2 C325.1,319.7 326.6,317.1 329.2,316.5 L339.2,314 C341.7,313.4 344.3,314.9 344.9,317.5 L347.4,327.5 C348,330 346.4,332.6 343.9,333.2 L343.9,333.2 Z M276.6,358.3 L280.6,374.6 C281.2,377.1 279.7,379.7 277.1,380.3 L260.8,384.3 C258.3,384.9 255.7,383.4 255.1,380.8 L251.1,364.5 C250.5,362 252,359.4 254.6,358.8 L270.9,354.8 C273.4,354.2 276,355.8 276.6,358.3 L276.6,358.3 Z M269,327.8 L273.5,345.8 C274.1,348.3 272.6,350.9 270,351.5 L253.7,355.5 C251.2,356.1 248.6,354.6 248,352 L243.6,334.1 L225.7,338.5 C223.2,339.1 220.6,337.6 220,335 L216,318.7 C215.4,316.2 216.9,313.6 219.5,313 L237.5,308.5 L233,290.5 C232.4,288 233.9,285.4 236.5,284.8 L252.8,280.8 C255.3,280.2 257.9,281.7 258.5,284.3 L262.9,302.2 L280.8,297.8 C283.3,297.2 285.9,298.7 286.5,301.3 L290.5,317.6 C291.1,320.1 289.6,322.7 287,323.3 L269,327.8 L269,327.8 Z M277.7,329.2 L287.8,326.7 C290.3,326.1 292.9,327.6 293.5,330.2 L296,340.3 C296.6,342.8 295.1,345.4 292.5,346 L282.4,348.5 C279.9,349.1 277.3,347.6 276.7,345 L274.2,334.9 C273.6,332.4 275.2,329.8 277.7,329.2 L277.7,329.2 Z M305.2,397.3 L295.2,399.8 C292.7,400.4 290.1,398.9 289.5,396.3 L287,386.3 C286.4,383.8 287.9,381.2 290.5,380.6 L300.5,378.1 C303,377.5 305.6,379 306.2,381.6 L308.7,391.6 C309.3,394.1 307.7,396.6 305.2,397.3 L305.2,397.3 Z M237.9,422.4 L241.9,438.7 C242.5,441.2 241,443.8 238.4,444.4 L222.1,448.4 C219.6,449 217,447.5 216.4,444.9 L212.4,428.6 C211.8,426.1 213.3,423.5 215.9,422.9 L232.2,418.9 C234.7,418.3 237.3,419.9 237.9,422.4 L237.9,422.4 Z M230.4,391.9 L234.9,409.9 C235.5,412.4 234,415 231.4,415.6 L215.1,419.6 C212.6,420.2 210,418.7 209.4,416.1 L205,398.2 L187.1,402.6 C184.6,403.2 182,401.7 181.4,399.1 L177.4,382.8 C176.8,380.3 178.3,377.7 180.9,377.1 L198.9,372.6 L194.4,354.6 C193.8,352.1 195.3,349.5 197.9,348.9 L214.2,344.9 C216.7,344.3 219.3,345.8 219.9,348.4 L224.3,366.3 L242.2,361.9 C244.7,361.3 247.3,362.8 247.9,365.4 L251.9,381.7 C252.5,384.2 251,386.8 248.4,387.4 L230.4,391.9 L230.4,391.9 Z M239.1,393.2 L249.2,390.7 C251.7,390.1 254.3,391.6 254.9,394.2 L257.4,404.3 C258,406.8 256.5,409.4 253.9,410 L243.8,412.5 C241.3,413.1 238.7,411.6 238.1,409 L235.6,398.9 C235,396.4 236.5,393.9 239.1,393.2 L239.1,393.2 Z M191.7,456 L196.2,474 C196.8,476.5 195.3,479.1 192.7,479.7 L154,489.3 C151.5,489.9 148.9,488.4 148.3,485.8 L138.7,447 C138.1,444.5 139.6,441.9 142.2,441.3 L160.2,436.8 L155.7,418.8 C155.1,416.3 156.6,413.7 159.2,413.1 L175.5,409.1 C178,408.5 180.6,410 181.2,412.6 L185.6,430.5 L203.5,426.1 C206,425.5 208.6,427 209.2,429.6 L213.2,445.9 C213.8,448.4 212.3,451 209.7,451.6 L191.7,456 L191.7,456 Z M200.4,457.3 L210.5,454.8 C213,454.2 215.6,455.7 216.2,458.3 L218.7,468.4 C219.3,470.9 217.8,473.5 215.2,474.1 L205.1,476.6 C202.6,477.2 200,475.7 199.4,473.1 L197,463 C196.3,460.5 197.9,457.9 200.4,457.3 L200.4,457.3 Z M328.6,127.6 L332.6,143.9 C333.2,146.4 331.7,149 329.1,149.6 L312.8,153.6 C310.3,154.2 307.7,152.7 307.1,150.1 L303.1,133.8 C302.5,131.3 304,128.7 306.6,128.1 L322.9,124.1 C325.4,123.5 328,125 328.6,127.6 L328.6,127.6 Z M321.1,97.1 L325.6,115.1 C326.2,117.6 324.7,120.2 322.1,120.8 L305.8,124.8 C303.3,125.4 300.7,123.9 300.1,121.3 L295.7,103.4 L277.8,107.8 C275.3,108.4 272.7,106.9 272.1,104.3 L268.1,88 C267.5,85.5 269,82.9 271.6,82.3 L289.6,77.8 L285,60 C284.4,57.5 285.9,54.9 288.5,54.3 L327.2,44.7 C329.7,44.1 332.3,45.6 332.9,48.2 L342.5,87 C343.1,89.5 341.6,92.1 339,92.7 L321.1,97.1 L321.1,97.1 Z M329.8,98.4 L339.9,95.9 C342.4,95.3 345,96.8 345.6,99.4 L348.1,109.5 C348.7,112 347.2,114.6 344.6,115.2 L334.5,117.7 C332,118.3 329.4,116.8 328.8,114.2 L326.3,104.1 C325.7,101.6 327.3,99 329.8,98.4 L329.8,98.4 Z M357.3,166.5 L347.3,169 C344.8,169.6 342.2,168.1 341.6,165.5 L339.1,155.5 C338.5,153 340,150.4 342.6,149.8 L352.6,147.3 C355.1,146.7 357.7,148.2 358.3,150.8 L360.8,160.8 C361.4,163.3 359.8,165.9 357.3,166.5 L357.3,166.5 Z M290,191.6 L294,207.9 C294.6,210.4 293.1,213 290.5,213.6 L274.2,217.6 C271.7,218.2 269.1,216.7 268.5,214.1 L264.5,197.8 C263.9,195.3 265.4,192.7 268,192.1 L284.3,188.1 C286.8,187.6 289.4,189.1 290,191.6 L290,191.6 Z M282.4,161.1 L286.9,179.1 C287.5,181.6 286,184.2 283.4,184.8 L267.1,188.8 C264.6,189.4 262,187.9 261.4,185.3 L257,167.4 L239.1,171.8 C236.6,172.4 234,170.9 233.4,168.3 L229.4,152 C228.8,149.5 230.3,146.9 232.9,146.3 L250.9,141.8 L246.4,123.8 C245.8,121.3 247.3,118.7 249.9,118.1 L266.1,114.1 C268.6,113.5 271.2,115 271.8,117.6 L276.2,135.5 L294.1,131.1 C296.6,130.5 299.2,132 299.8,134.6 L303.8,150.8 C304.4,153.3 302.9,155.9 300.3,156.5 L282.4,161.1 L282.4,161.1 Z M291.1,162.5 L301.2,160 C303.7,159.4 306.3,160.9 306.9,163.5 L309.4,173.6 C310,176.1 308.5,178.7 305.9,179.3 L295.8,181.8 C293.3,182.4 290.7,180.9 290.1,178.3 L287.6,168.2 C287,165.7 288.6,163.1 291.1,162.5 L291.1,162.5 Z M318.6,230.6 L308.6,233.1 C306.1,233.7 303.5,232.2 302.9,229.6 L300.4,219.6 C299.8,217.1 301.3,214.5 303.9,213.9 L313.9,211.4 C316.4,210.8 319,212.3 319.6,214.9 L322.1,224.9 C322.7,227.4 321.1,229.9 318.6,230.6 L318.6,230.6 Z M251.3,255.7 L255.3,272 C255.9,274.5 254.4,277.1 251.8,277.7 L235.5,281.7 C233,282.3 230.4,280.8 229.8,278.2 L225.8,261.9 C225.2,259.4 226.7,256.8 229.3,256.2 L245.6,252.2 C248.1,251.6 250.7,253.2 251.3,255.7 L251.3,255.7 Z M243.8,225.2 L248.3,243.2 C248.9,245.7 247.4,248.3 244.8,248.9 L228.5,252.9 C226,253.5 223.4,252 222.8,249.4 L218.4,231.5 L200.5,235.9 C198,236.5 195.4,235 194.8,232.4 L190.8,216.1 C190.2,213.6 191.7,211 194.3,210.4 L212.3,205.9 L207.8,187.9 C207.2,185.4 208.7,182.8 211.3,182.2 L227.6,178.2 C230.1,177.6 232.7,179.1 233.3,181.7 L237.7,199.6 L255.6,195.2 C258.1,194.6 260.7,196.1 261.3,198.7 L265.3,215 C265.9,217.5 264.4,220.1 261.8,220.7 L243.8,225.2 L243.8,225.2 Z M252.5,226.5 L262.6,224 C265.1,223.4 267.7,224.9 268.3,227.5 L270.8,237.6 C271.4,240.1 269.9,242.7 267.3,243.3 L257.2,245.8 C254.7,246.4 252.1,244.9 251.5,242.3 L249,232.2 C248.4,229.7 249.9,227.2 252.5,226.5 L252.5,226.5 Z M280,294.6 L270,297.1 C267.5,297.7 264.9,296.2 264.3,293.6 L261.8,283.6 C261.2,281.1 262.7,278.5 265.3,277.9 L275.3,275.4 C277.8,274.8 280.4,276.3 281,278.9 L283.5,288.9 C284,291.4 282.5,294 280,294.6 L280,294.6 Z M212.7,319.8 L216.7,336.1 C217.3,338.6 215.8,341.2 213.2,341.8 L196.9,345.8 C194.4,346.4 191.8,344.9 191.2,342.3 L187.2,326 C186.6,323.5 188.1,320.9 190.7,320.3 L207,316.3 C209.5,315.7 212.1,317.2 212.7,319.8 L212.7,319.8 Z M205.1,289.3 L209.6,307.3 C210.2,309.8 208.7,312.4 206.1,313 L189.8,317 C187.3,317.6 184.7,316.1 184.1,313.5 L179.7,295.6 L161.8,300 C159.3,300.6 156.7,299.1 156.1,296.5 L152.1,280.2 C151.5,277.7 153,275.1 155.6,274.5 L173.6,270 L169.1,252 C168.5,249.5 170,246.9 172.6,246.3 L188.8,242.3 C191.3,241.7 193.9,243.2 194.5,245.8 L198.9,263.7 L216.8,259.3 C219.3,258.7 221.9,260.2 222.5,262.8 L226.5,279.1 C227.1,281.6 225.6,284.2 223,284.8 L205.1,289.3 L205.1,289.3 Z M213.8,290.6 L223.9,288.1 C226.4,287.5 229,289 229.6,291.6 L232.1,301.7 C232.7,304.2 231.2,306.8 228.6,307.4 L218.5,309.9 C216,310.5 213.4,309 212.8,306.4 L210.3,296.3 C209.7,293.8 211.3,291.2 213.8,290.6 L213.8,290.6 Z M241.3,358.7 L231.3,361.2 C228.8,361.8 226.2,360.3 225.6,357.7 L223.1,347.7 C222.5,345.2 224,342.6 226.6,342 L236.6,339.5 C239.1,338.9 241.7,340.4 242.3,343 L244.8,353 C245.4,355.5 243.8,358.1 241.3,358.7 L241.3,358.7 Z M174,383.9 L178,400.2 C178.6,402.7 177.1,405.3 174.5,405.9 L158.2,409.9 C155.7,410.5 153.1,409 152.5,406.4 L148.5,390.1 C147.9,387.6 149.4,385 152,384.4 L168.3,380.4 C170.8,379.8 173.4,381.3 174,383.9 L174,383.9 Z M166.5,353.3 L171,371.3 C171.6,373.8 170.1,376.4 167.5,377 L151.2,381 C148.7,381.6 146.1,380.1 145.5,377.5 L141.1,359.6 L123.2,364 C120.7,364.6 118.1,363.1 117.5,360.5 L113.5,344.2 C112.9,341.7 114.4,339.1 117,338.5 L135,334 L130.5,316 C129.9,313.5 131.4,310.9 134,310.3 L150.3,306.3 C152.8,305.7 155.4,307.2 156,309.8 L160.4,327.7 L178.3,323.3 C180.8,322.7 183.4,324.2 184,326.8 L188,343.1 C188.6,345.6 187.1,348.2 184.5,348.8 L166.5,353.3 L166.5,353.3 Z M175.2,354.7 L185.3,352.2 C187.8,351.6 190.4,353.1 191,355.7 L193.5,365.8 C194.1,368.3 192.6,370.9 190,371.5 L180,374 C177.5,374.6 174.9,373.1 174.3,370.5 L171.8,360.4 C171.1,357.9 172.6,355.3 175.2,354.7 L175.2,354.7 Z M202.6,422.8 L192.6,425.3 C190.1,425.9 187.5,424.4 186.9,421.8 L184.4,411.8 C183.8,409.3 185.3,406.7 187.9,406.1 L197.9,403.6 C200.4,403 203,404.5 203.6,407.1 L206.1,417.1 C206.7,419.6 205.2,422.2 202.6,422.8 L202.6,422.8 Z M127.8,417.4 L132.3,435.4 C132.9,437.9 131.4,440.5 128.8,441.1 L90,450.7 C87.5,451.3 84.9,449.8 84.3,447.2 L74.7,408.4 C74.1,405.9 75.6,403.3 78.2,402.7 L96.2,398.2 L91.7,380.2 C91.1,377.7 92.6,375.1 95.2,374.5 L111.4,370.5 C113.9,369.9 116.5,371.4 117.1,374 L121.5,391.9 L139.4,387.5 C141.9,386.9 144.5,388.4 145.1,391 L149.1,407.2 C149.7,409.7 148.2,412.3 145.6,412.9 L127.8,417.4 L127.8,417.4 Z M136.5,418.7 L146.6,416.2 C149.1,415.6 151.7,417.1 152.3,419.7 L154.8,429.8 C155.4,432.3 153.9,434.9 151.3,435.5 L141.2,438 C138.7,438.6 136.1,437.1 135.5,434.5 L133,424.4 C132.4,421.9 134,419.4 136.5,418.7 L136.5,418.7 Z M264.7,89 L268.7,105.3 C269.3,107.8 267.8,110.4 265.2,111 L249,115 C246.5,115.6 243.9,114.1 243.3,111.5 L239.3,95.2 C238.7,92.7 240.2,90.1 242.8,89.5 L259.1,85.5 C261.5,84.9 264.1,86.5 264.7,89 L264.7,89 Z M257.2,58.5 L261.7,76.5 C262.3,79 260.8,81.6 258.2,82.2 L241.9,86.2 C239.4,86.8 236.8,85.3 236.2,82.7 L231.8,64.8 L213.9,69.2 C211.4,69.8 208.8,68.3 208.2,65.7 L198.5,27 C197.9,24.5 199.4,21.9 202,21.3 L263.4,6.1 C265.9,5.5 268.5,7 269.1,9.6 L278.7,48.4 C279.3,50.9 277.8,53.5 275.2,54.1 L257.2,58.5 L257.2,58.5 Z M265.9,59.8 L276,57.3 C278.5,56.7 281.1,58.2 281.7,60.8 L284.2,70.9 C284.8,73.4 283.3,76 280.7,76.6 L270.6,79.1 C268.1,79.7 265.5,78.2 264.9,75.6 L262.4,65.5 C261.8,63.1 263.3,60.5 265.9,59.8 L265.9,59.8 Z M293.4,128 L283.4,130.5 C280.9,131.1 278.3,129.6 277.7,127 L275.2,117 C274.6,114.5 276.1,111.9 278.7,111.3 L288.7,108.8 C291.2,108.2 293.8,109.7 294.4,112.3 L296.9,122.3 C297.4,124.7 295.9,127.3 293.4,128 L293.4,128 Z M226.1,153.1 L230.1,169.4 C230.7,171.9 229.2,174.5 226.6,175.1 L210.3,179.1 C207.8,179.7 205.2,178.2 204.6,175.6 L200.6,159.3 C200,156.8 201.5,154.2 204.1,153.6 L220.4,149.6 C222.9,149 225.5,150.6 226.1,153.1 L226.1,153.1 Z M218.5,122.6 L223,140.6 C223.6,143.1 222.1,145.7 219.5,146.3 L203.2,150.3 C200.7,150.9 198.1,149.4 197.5,146.8 L193.1,128.9 L175.2,133.3 C172.7,133.9 170.1,132.4 169.5,129.8 L159.9,90.9 C159.3,88.4 160.8,85.8 163.4,85.2 L202.3,75.6 C204.8,75 207.4,76.5 208,79.1 L212.4,97 L230.3,92.6 C232.8,92 235.4,93.5 236,96.1 L240,112.4 C240.6,114.9 239.1,117.5 236.5,118.1 L218.5,122.6 L218.5,122.6 Z M227.2,123.9 L237.3,121.4 C239.8,120.8 242.4,122.3 243,124.9 L245.5,135 C246.1,137.5 244.6,140.1 242,140.7 L231.9,143.2 C229.4,143.8 226.8,142.3 226.2,139.7 L223.7,129.6 C223.1,127.1 224.7,124.5 227.2,123.9 L227.2,123.9 Z M254.7,192 L244.7,194.5 C242.2,195.1 239.6,193.6 239,191 L236.5,181 C235.9,178.5 237.4,175.9 240,175.3 L250,172.8 C252.5,172.2 255.1,173.7 255.7,176.3 L258.2,186.3 C258.8,188.8 257.2,191.4 254.7,192 L254.7,192 Z M187.4,217.2 L191.4,233.5 C192,236 190.5,238.6 187.9,239.2 L171.6,243.2 C169.1,243.8 166.5,242.3 165.9,239.7 L161.9,223.4 C161.3,220.9 162.8,218.3 165.4,217.7 L181.7,213.7 C184.2,213.1 186.8,214.6 187.4,217.2 L187.4,217.2 Z M179.9,186.7 L184.4,204.7 C185,207.2 183.5,209.8 180.9,210.4 L164.6,214.4 C162.1,215 159.5,213.5 158.9,210.9 L154.5,193 L136.6,197.4 C134.1,198 131.5,196.5 130.9,193.9 L121.3,155 C120.7,152.5 122.2,149.9 124.8,149.3 L163.7,139.7 C166.2,139.1 168.8,140.6 169.4,143.2 L173.8,161.1 L191.7,156.7 C194.2,156.1 196.8,157.6 197.4,160.2 L201.4,176.5 C202,179 200.5,181.6 197.9,182.2 L179.9,186.7 L179.9,186.7 Z M188.6,188 L198.7,185.5 C201.2,184.9 203.8,186.4 204.4,189 L206.9,199.1 C207.5,201.6 206,204.2 203.4,204.8 L193.3,207.3 C190.8,207.9 188.2,206.4 187.6,203.8 L185.1,193.7 C184.5,191.2 186,188.6 188.6,188 L188.6,188 Z M216.1,256.1 L206.1,258.6 C203.6,259.2 201,257.7 200.4,255.1 L197.9,245.1 C197.3,242.6 198.8,240 201.4,239.4 L211.4,236.9 C213.9,236.3 216.5,237.8 217.1,240.4 L219.6,250.4 C220.1,252.9 218.6,255.5 216.1,256.1 L216.1,256.1 Z M148.8,281.2 L152.8,297.5 C153.4,300 151.9,302.6 149.3,303.2 L133,307.2 C130.5,307.8 127.9,306.3 127.3,303.7 L123.3,287.4 C122.7,284.9 124.2,282.3 126.8,281.7 L143.1,277.7 C145.6,277.1 148.2,278.7 148.8,281.2 L148.8,281.2 Z M141.2,250.7 L145.7,268.7 C146.3,271.2 144.8,273.8 142.2,274.4 L125.9,278.4 C123.4,279 120.8,277.5 120.2,274.9 L115.8,257 L97.9,261.4 C95.4,262 92.8,260.5 92.2,257.9 L82.6,219 C82,216.5 83.5,213.9 86.1,213.3 L125,203.7 C127.5,203.1 130.1,204.6 130.7,207.2 L135.1,225.1 L153,220.7 C155.5,220.1 158.1,221.6 158.7,224.2 L162.7,240.5 C163.3,243 161.8,245.6 159.2,246.2 L141.2,250.7 L141.2,250.7 Z M149.9,252 L160,249.5 C162.5,248.9 165.1,250.4 165.7,253 L168.2,263.1 C168.8,265.6 167.3,268.2 164.7,268.8 L154.6,271.3 C152.1,271.9 149.5,270.4 148.9,267.8 L146.4,257.7 C145.8,255.3 147.4,252.7 149.9,252 L149.9,252 Z M177.4,320.2 L167.4,322.7 C164.9,323.3 162.3,321.8 161.7,319.2 L159.2,309.2 C158.6,306.7 160.1,304.1 162.7,303.5 L172.7,301 C175.2,300.4 177.8,301.9 178.4,304.5 L180.9,314.5 C181.5,316.9 179.9,319.5 177.4,320.2 L177.4,320.2 Z M110.1,345.3 L114.1,361.6 C114.7,364.1 113.2,366.7 110.6,367.3 L94.3,371.3 C91.8,371.9 89.2,370.4 88.6,367.8 L84.6,351.5 C84,349 85.5,346.4 88.1,345.8 L104.4,341.8 C106.9,341.2 109.5,342.8 110.1,345.3 L110.1,345.3 Z M102.6,314.8 L107.1,332.8 C107.7,335.3 106.2,337.9 103.6,338.5 L87.3,342.5 C84.8,343.1 82.2,341.6 81.6,339 L77.2,321.1 L59.3,325.5 C56.8,326.1 54.2,324.6 53.6,322 L44,283.1 C43.4,280.6 44.9,278 47.5,277.4 L86.4,267.8 C88.9,267.2 91.5,268.7 92.1,271.3 L96.5,289.2 L114.4,284.8 C116.9,284.2 119.5,285.7 120.1,288.3 L122.1,296.5 L124.1,304.6 C124.7,307.1 123.2,309.7 120.6,310.3 L102.6,314.8 L102.6,314.8 Z M111.3,316.1 L121.4,313.6 C123.9,313 126.5,314.5 127.1,317.1 L129.6,327.2 C130.2,329.7 128.7,332.3 126.1,332.9 L116,335.4 C113.5,336 110.9,334.5 110.3,331.9 L107.8,321.8 C107.2,319.3 108.7,316.7 111.3,316.1 L111.3,316.1 Z M138.7,384.2 L128.7,386.7 C126.2,387.3 123.6,385.8 123,383.2 L120.5,373.2 C119.9,370.7 121.4,368.1 124,367.5 L134,365 C136.5,364.4 139.1,365.9 139.7,368.5 L142.2,378.5 C142.8,381 141.3,383.6 138.7,384.2 L138.7,384.2 Z M63.9,378.9 L68.4,396.9 C69,399.4 67.5,402 64.9,402.6 L26.2,412.2 C23.7,412.8 21.1,411.3 20.5,408.7 L5.3,347.3 C4.7,344.8 6.2,342.2 8.8,341.6 L47.7,332 C50.2,331.4 52.8,332.9 53.4,335.5 L57.8,353.4 L75.7,349 C78.2,348.4 80.8,349.9 81.4,352.5 L85.4,368.8 C86,371.3 84.5,373.9 81.9,374.5 L63.9,378.9 L63.9,378.9 Z M72.6,380.2 L82.7,377.7 C85.2,377.1 87.8,378.6 88.4,381.2 L90.9,391.3 C91.5,393.8 90,396.4 87.4,397 L77.3,399.5 C74.8,400.1 72.2,398.6 71.6,396 L69.1,385.9 C68.5,383.4 70.1,380.8 72.6,380.2 L72.6,380.2 Z M229.4,89.4 L219.4,91.9 C216.9,92.5 214.3,91 213.7,88.4 L211.2,78.4 C210.6,75.9 212.1,73.3 214.7,72.7 L224.7,70.2 C227.2,69.6 229.8,71.1 230.4,73.7 L232.9,83.7 C233.5,86.2 232,88.8 229.4,89.4 L229.4,89.4 Z M190.8,153.5 L180.8,156 C178.3,156.6 175.7,155.1 175.1,152.5 L172.6,142.5 C172,140 173.5,137.4 176.1,136.8 L186.1,134.3 C188.6,133.7 191.2,135.2 191.8,137.8 L194.3,147.8 C194.9,150.3 193.3,152.8 190.8,153.5 L190.8,153.5 Z M152.1,217.5 L142.1,220 C139.6,220.6 137,219.1 136.4,216.5 L133.9,206.5 C133.3,204 134.8,201.4 137.4,200.8 L147.4,198.3 C149.9,197.7 152.5,199.2 153.1,201.8 L155.6,211.8 C156.2,214.3 154.7,216.9 152.1,217.5 L152.1,217.5 Z M113.5,281.6 L103.5,284.1 C101,284.7 98.4,283.2 97.8,280.6 L95.3,270.6 C94.7,268.1 96.2,265.5 98.8,264.9 L108.8,262.4 C111.3,261.8 113.9,263.3 114.5,265.9 L117,275.9 C117.6,278.4 116,281 113.5,281.6 L113.5,281.6 Z M74.8,345.7 L64.8,348.2 C62.3,348.8 59.7,347.3 59.1,344.7 L56.6,334.7 C56,332.2 57.5,329.6 60.1,329 L70.1,326.5 C72.6,325.9 75.2,327.4 75.8,330 L78.3,340 C78.9,342.5 77.4,345 74.8,345.7 Z" id="Shape"></path>
            </g>
        </g>
    </g>
</svg>