<?xml version="1.0" encoding="UTF-8"?>
<svg width="231px" height="116px" viewBox="0 0 231 116" version="1.1" xmlns="http://www.w3.org/2000/svg" xmlns:xlink="http://www.w3.org/1999/xlink">
    <!-- Generator: Sketch 53.2 (72643) - https://sketchapp.com -->
    <title>Withdrawal pot background</title>
    <desc>Created with Sketch.</desc>
    <defs>
        <rect id="path-1" x="0" y="0" width="231" height="116" rx="11"></rect>
    </defs>
    <g id="04-Deposit-and-Withdrawals" stroke="none" stroke-width="1" fill="none" fill-rule="evenodd">
        <g id="4.1-Whot---Withdrawals" transform="translate(-25.000000, -96.000000)">
            <g id="Group-8" transform="translate(25.000000, 96.000000)">
                <g id="Withdrawal-pot-background">
                    <mask id="mask-2" fill="white">
                        <use xlink:href="#path-1"></use>
                    </mask>
                    <use id="Mask" fill="#5F9B8B" xlink:href="#path-1"></use>
                    <g id="icon/withdraw" opacity="0.14" mask="url(#mask-2)">
                        <g transform="translate(116.000000, 17.000000)" id="atm">
                            <g>
                                <path d="M63.6305916,49.0476191 C63.6305916,54.4652915 59.2477849,58.8571429 53.8412698,58.8571429 C48.4347547,58.8571429 44.0519481,54.4652915 44.0519481,49.0476191 C44.0519481,43.6299466 48.4347547,39.2380952 53.8412698,39.2380952 C59.2477849,39.2380952 63.6305916,43.6299466 63.6305916,49.0476191 Z" id="Path" fill="#FFFFFF" fill-rule="nonzero"></path>
                                <path d="M101.416877,3.5317098 C98.9627966,1.25402903 95.7011248,0 92.2331401,0 L12.9880844,0 C9.5200997,0 6.25842793,1.25402903 3.8027415,3.53320102 C1.35026616,5.81311832 0,8.84157639 0,12.0623884 L0,24.3290597 C0,27.5498717 1.35026616,30.5783298 3.80434715,32.8597381 C6.25923066,35.1374189 9.5200997,36.3907024 12.9880844,36.3907024 L13.6463593,36.3907024 L13.6463593,15.3324072 C13.6463593,13.7518235 15.0263282,12.4694632 16.7290123,12.4694632 L88.4930149,12.4694632 C90.1948963,12.4694632 91.5756679,13.7518235 91.5756679,15.3324072 L91.5756679,36.3907024 L92.2331401,36.3907024 C95.7011248,36.3907024 98.9619938,35.1366734 101.418483,32.8575016 C103.870958,30.5783298 105.221224,27.5491262 105.221224,24.3290597 L105.221224,12.0623884 C105.221224,8.84157639 103.870958,5.81311832 101.416877,3.5317098 Z" id="Path" fill="#FFFFFF" fill-rule="nonzero"></path>
                                <path d="M19.5786436,93.5680805 C19.5786436,96.0890435 20.6319106,98.4575762 22.5413764,100.235148 C24.4516807,102.018192 26.9926037,103 29.6970513,103 L77.9863269,103 C80.6907745,103 83.2316975,102.018192 85.1386475,100.238275 C87.050629,98.4575762 88.1038961,96.0890435 88.1038961,93.5680805 L88.1038961,19.6190476 L19.5786436,19.6190476 L19.5786436,93.5680805 Z M53.8412698,29.4285714 C64.6370005,29.4285714 73.4199134,38.2296096 73.4199134,49.0476192 C73.4199134,59.8656287 64.6370005,68.6666667 53.8412698,68.6666667 C43.0455392,68.6666667 34.2626263,59.8656287 34.2626263,49.0476192 C34.2626263,38.2296096 43.0455392,29.4285714 53.8412698,29.4285714 Z M37.3432242,83.3809524 L70.3393155,83.3809524 C72.0408647,83.3809524 73.4199134,84.4787759 73.4199134,85.8333333 C73.4199134,87.187252 72.0408647,88.2857143 70.3393155,88.2857143 L37.3432242,88.2857143 C35.641675,88.2857143 34.2626263,87.187252 34.2626263,85.8333333 C34.2626263,84.4787759 35.641675,83.3809524 37.3432242,83.3809524 Z" id="Shape" fill="#FFFFFF" fill-rule="nonzero"></path>
                            </g>
                        </g>
                    </g>
                </g>
            </g>
        </g>
    </g>
</svg>